<svg xmlns="http://www.w3.org/2000/svg" viewBox="0 0 56 56" role="img" aria-label="Cold atom vacuum chamber">
  <defs>
    <linearGradient id="steel" x1="10" y1="12" x2="46" y2="44" gradientUnits="userSpaceOnUse">
      <stop offset="0" stop-color="#f8fafc"/>
      <stop offset="0.48" stop-color="#cbd5e1"/>
      <stop offset="1" stop-color="#64748b"/>
    </linearGradient>
    <radialGradient id="glass" cx="50%" cy="45%" r="58%">
      <stop offset="0" stop-color="#dff8ff"/>
      <stop offset="0.65" stop-color="#7dd3fc"/>
      <stop offset="1" stop-color="#2563eb"/>
    </radialGradient>
  </defs>
  <path d="M17 17l11-5 11 5 5 11-5 11-11 5-11-5-5-11z" fill="url(#steel)" stroke="#334155" stroke-width="2.4" stroke-linejoin="round"/>
  <circle cx="28" cy="28" r="9.5" fill="url(#glass)" stroke="#0f172a" stroke-width="2"/>
  <circle cx="28" cy="28" r="4.4" fill="none" stroke="#e0f2fe" stroke-width="1.6"/>
  <path d="M5 28h7M44 28h7M28 5v7M28 44v7M12 12l5 5M44 12l-5 5M12 44l5-5M44 44l-5-5" fill="none" stroke="#475569" stroke-width="2.6" stroke-linecap="round"/>
  <g fill="#f8fafc" stroke="#334155" stroke-width="1.8">
    <circle cx="5" cy="28" r="3.6"/>
    <circle cx="51" cy="28" r="3.6"/>
    <circle cx="28" cy="5" r="3.6"/>
    <circle cx="28" cy="51" r="3.6"/>
    <circle cx="10" cy="10" r="3.1"/>
    <circle cx="46" cy="10" r="3.1"/>
    <circle cx="10" cy="46" r="3.1"/>
    <circle cx="46" cy="46" r="3.1"/>
  </g>
  <g fill="#334155">
    <circle cx="20" cy="18" r="1"/>
    <circle cx="36" cy="18" r="1"/>
    <circle cx="39" cy="28" r="1"/>
    <circle cx="36" cy="38" r="1"/>
    <circle cx="20" cy="38" r="1"/>
    <circle cx="17" cy="28" r="1"/>
  </g>
  <path d="M8 31h40M8 25h40" stroke="#22d3ee" stroke-width="1.5" stroke-linecap="round" opacity="0.75"/>
</svg>
